<svg version="1.1" xmlns="http://www.w3.org/2000/svg" viewBox="0 0 339 445" width="339" height="445">
  <!-- svg-source:excalidraw -->
  
  <defs>
    <style>
      @font-face {
        font-family: "Virgil";
        src: url("https://excalidraw.com/Virgil.woff2");
      }
      @font-face {
        font-family: "Cascadia";
        src: url("https://excalidraw.com/Cascadia.woff2");
      }
    </style>
  </defs>
  <g transform="translate(43 45) rotate(0 125.5 174.5)"><path d="M92.03358041107293 7.369172156863726 C103.50241393948336 0.09280426392740981, 119.02019912403824 -0.37711760398183003, 131.9352362222939 0.42485353721835395 C144.85027332054955 1.226824678418538, 157.31305804813107 5.744451506485532, 169.52380300060688 12.18099900406483 C181.73454795308268 18.617546501644128, 194.72757948098004 27.551159294423435, 205.1997059371488 39.04413852269414 C215.67183239331754 50.537117750964846, 225.44962137814338 65.61513444467725, 232.35656173761944 81.13887437368905 C239.2635020970955 96.66261430270085, 243.6787255191718 114.62235230516562, 246.64134809400517 132.18657809676495 C249.60397066883854 149.7508038883643, 250.83801846106996 168.3519300895833, 250.13229718661964 186.52422912328504 C249.4265759121693 204.69652815698677, 247.34832307845568 224.10185345420535, 242.40702044730327 241.22037229897535 C237.46571781615086 258.33889114374534, 229.27945129034777 275.5106672611659, 220.48448139970526 289.2353421919051 C211.68951150906275 302.9600171226443, 200.87074561034814 314.3849912007866, 189.63720110344818 323.56842188341034 C178.40365659654822 332.7518525660341, 165.92617035376043 340.14213141732523, 153.08321435830555 344.3359262876475 C140.24025836285068 348.5297211579698, 125.76861670652987 350.4822786981463, 112.57946513071899 348.7311911053441 C99.3903135549081 346.980103512542, 85.78229438592372 341.2486172272311, 73.94830490344026 333.8294007308348 C62.11431542095681 326.4101842344385, 51.24670230090743 316.4483859980225, 41.575528235818254 304.2158921269662 C31.90435417072908 291.9833982559099, 22.503229868160847 276.425381457476, 15.921260512905192 260.43443750449694 C9.339291157649537 244.44349355151786, 4.4955117569885825 226.19279907226758, 2.0837121042843165 208.2702284090918 C-0.328087548419949 190.34765774591602, -0.27943204136273647 170.95282010071546, 1.4504625966795999 152.8990135254423 C3.180357234721936 134.84520695016917, 6.953255569741342 116.5108525595058, 12.463079932538335 99.94738895745287 C17.97290429533533 83.38392535539994, 25.429098573574848 66.63633065200472, 34.50940877346156 53.518231913124694 C43.58971897334827 40.40013317424468, 56.14597410188875 29.49465761487089, 66.94494113185861 21.238796524172784 C77.74390816182849 12.982935433474681, 92.80661059849874 6.73761183711037, 99.30321095328077 3.9830653689360815 C105.7998113080628 1.2285189007617938, 105.63740226638927 1.8733742053354043, 105.92454326055076 4.711517715127059 M121.39988184348971 0.5504821353236764 C133.5062371527947 -2.710252040166395, 147.2318672340528 3.341430829648445, 159.65803541651206 8.151574874039511 C172.08420359897133 12.961718918430577, 185.10901394267563 19.054026244710712, 195.9568909382453 29.411346401670073 C206.80476793381496 39.768666558629434, 216.79504667238464 55.35008184322165, 224.7452973899301 70.29549581579569 C232.69554810747556 85.24090978836973, 239.4153256239052 101.86261337980278, 243.658395243518 119.08383023711431 C247.90146486313077 136.30504709442584, 249.83952853892828 155.43890911497311, 250.20371510760677 173.62279695966487 C250.56790167628526 191.80668480435662, 249.80180869650758 210.97429596291246, 245.8435146555889 228.18715730526486 C241.88522061467023 245.40001864761726, 234.40217831302917 262.3221393885481, 226.4539508620947 276.8999650137793 C218.50572341116023 291.4777906390105, 208.97790759805167 304.72434885478447, 198.15414994998207 315.654111056652 C187.33039230191247 326.5838732585196, 173.84688530473804 336.7045852743202, 161.51140497367703 342.47853822498473 C149.17592464261602 348.25249117564925, 136.93784526361833 350.8701418135879, 124.14126796361596 350.2978287606393 C111.34469066361358 349.72551570769065, 97.33381356993064 345.07771247571094, 84.73194117366276 339.04465990729295 C72.13006877739488 333.01160733887497, 59.26391394628646 325.43203867213174, 48.530033586008685 314.09951335013125 C37.79615322573091 302.76698802813075, 27.5838954202128 286.60333824541226, 20.328659011996123 271.0495079752898 C13.073422603779445 255.49567770516742, 8.286887859437734 237.96776225391596, 4.998615136708622 220.77653172939677 C1.710342413979511 203.58530120487757, 0.0828315763141726 186.09303601360628, 0.5990226756214554 167.90212482817466 C1.1152137749287383 149.71121364274305, 3.578076778418054 129.10710963983055, 8.095761732552319 111.63106461680701 C12.613446686686583 94.15501959378346, 19.576510551672172 76.9994838243234, 27.705132400427047 63.04585469003341 C35.83375424918192 49.09222555574341, 45.51126938143159 37.4116904552646, 56.86749282508157 27.909289811067026 C68.22371626873155 18.406889166869455, 85.23178784735185 10.530291304682894, 95.84247306232695 6.03145082484798 C106.45315827730204 1.5326103450130644, 116.34500424285255 1.503375863994639, 120.5316041149321 0.9162469320575326 C124.71820398701163 0.32911800012042625, 120.58789637447467 -0.22293940674822466, 120.96207229480414 2.5086772332253418" stroke="#000000" stroke-width="1" fill="none"></path></g><g transform="translate(143 129) rotate(0 19.5 88)"><path d="M-1.1734508033841848 0.3562698420137167 C13.562561302725227 0.7113307863753289, 24.501601134054365 -2.2707155197579416, 37.02232285775244 -0.4533334318548441 M0.9549060193821788 0.2684615971520543 C14.836482449714095 0.8792753618303686, 28.826856907084586 -0.7616256374772639, 38.04126668255776 0.984033745713532 M39.35350104607642 -0.15100484527647495 C38.68072620652616 58.437179334089166, 39.76312289260328 116.76334530971945, 40.12919452227652 175.3487848099321 M38.652628424577415 0.026682776398956776 C40.591826342903076 62.829503236897295, 40.06300716932863 127.48490567523987, 39.9313137261197 175.44487352389842 M38.33633401431143 176.17920482717454 C27.685711349453776 175.74271462124773, 19.085894730128345 177.59776929778047, 0.8511880282312632 175.69731075130403 M38.99690673034638 176.68478055018932 C24.611749604623764 175.6978638152685, 11.30505603328347 176.92561325236224, -0.141488847322762 176.1918508829549 M1.4552849177271128 176.05826360546052 C-0.6482236356288194 108.4002665799111, -2.5154157251864673 41.69301990531383, -1.6216941829770803 -0.7999064866453409 M0.6842436222359538 175.12388895172626 C-2.235060800053179 124.99086036849766, -2.471306044794619 74.91359979826956, 0.7488538352772593 -0.0765173314139247" stroke="#000000" stroke-width="1" fill="none"></path></g><g transform="translate(10 10) rotate(0 159.5 212.5)"><path d="M231.4258174494438 22.6232560303109 C245.11884725244187 28.212483758476832, 257.1158083720545 44.18624577145152, 267.9318947665401 57.867263469470316 C278.7479811610257 71.54828116748912, 288.61230905380967 87.3001000712327, 296.3223358163573 104.7093622184237 C304.0323625789049 122.1186243656147, 310.3583953343061 142.65370358768445, 314.1920553418256 162.32283635261635 C318.0257153493451 181.99196911754825, 320.12296067162424 202.9349027748495, 319.3242958614742 222.72415880801518 C318.5256310513241 242.51341484118086, 314.5170850018331 262.36029742207, 309.40006648092543 281.05837255161043 C304.28304796001777 299.75644768115086, 297.3136229352443 318.3182802852442, 288.6221847360281 334.91260958525766 C279.93074653681185 351.5069388852711, 269.011871032616 368.0178763482112, 257.25143728562784 380.6243483516911 C245.4910035386397 393.230820355171, 231.98303251884133 403.44315267218917, 218.05958225409915 410.551441606137 C204.13613198935698 417.65973054008487, 188.87257311292637 421.58191323289157, 173.7107356971748 423.27408195537805 C158.54889828142325 424.96625067786454, 141.94183054791898 424.56890226497194, 127.08855775958985 420.70445394105593 C112.2352849712607 416.8400056171399, 97.7028887216264 409.39075064386157, 84.59109896719994 400.0873920118822 C71.47930921277349 390.7840333799028, 59.204013384397776 378.8085044415968, 48.417819233031125 364.8843021491797 C37.631625081664474 350.96009985676255, 27.324267024255196 334.1630673469147, 19.87393405900002 316.5421782573793 C12.423601093744846 298.9212891678439, 7.101834506119582 278.73849067268526, 3.7158214415000828 259.15896761196734 C0.32980837688058307 239.57944455124942, -1.5488402058032307 219.03363540612455, -0.44214432871697795 199.06503989307174 C0.6645515483692748 179.09644438001894, 4.952777784989839 158.300245008551, 10.355996704017599 139.34739453365052 C15.75921562304536 120.39454405875003, 23.0604303439639 101.37762254421516, 31.977169185449583 85.34793704366881 C40.893908026935264 69.31825154312246, 51.729837638940104 55.19045113359138, 63.8564297529317 43.16928153037239 C75.9830218669233 31.148111927153394, 90.7995860641802 20.27658566975961, 104.73672186939916 13.220919424354861 C118.67385767461812 6.165253178950114, 132.44758644768712 2.042519178054955, 147.47924458424544 0.8352840579439089 C162.51090272080376 -0.37195106216713714, 178.34227368181615 0.40945158281598015, 194.926670688749 5.977508703688585 C211.51106769568185 11.54556582456119, 236.16283641086892 26.425389328858234, 246.9856266258426 34.243626783179536 C257.8084168408163 42.061864237500835, 261.4599765174613 49.77146874735317, 259.86341197859105 52.88693342961639 M184.17422493701883 3.5941656612397708 C198.36330010767756 2.9210414315928452, 212.95207505243673 11.990719713227, 226.6369462691593 20.095590458400494 C240.32181748588187 28.200461203573987, 254.73182406468692 38.7601396864503, 266.2834522373543 52.22339013228074 C277.8350804100217 65.68664057811118, 288.26656132375956 83.60880323412006, 295.9467153051636 100.87509313338315 C303.6268692865676 118.14138303264623, 308.48281319523517 136.81557996852197, 312.36437612577845 155.82112952785923 C316.24593905632173 174.82667908719648, 319.51245527840626 194.5742936178668, 319.2360928884234 214.90839048940674 C318.95973049844054 235.24248736094668, 315.20195423831854 258.2436870648049, 310.7062017858814 277.82571075709893 C306.2104493334442 297.407734449393, 300.5390214317821 316.13924226444465, 292.26157817380033 332.40053264317123 C283.9841349158186 348.6618230218978, 272.4911609228441 362.83395373604685, 261.0415422379907 375.39345302945827 C249.59192355313735 387.9529523228697, 237.25781987293323 399.9344200553748, 223.56386606468016 407.75752840363975 C209.86991225642709 415.5806367519047, 193.94493461168264 419.8006419030356, 178.87781938847223 422.33210311904793 C163.81070416526182 424.86356433506023, 148.1770298913064 426.1825317527554, 133.16117472541765 422.94629569971346 C118.14531955952889 419.71005964667154, 102.66714998352082 411.752970618823, 88.78268839313967 402.9146868007966 C74.89822680275851 394.07640298277016, 60.76835841613118 383.52573127984573, 49.85440518313072 369.9165927915549 C38.94045195013027 356.307454303264, 30.532054670595127 338.65602929839105, 23.29896899513693 321.25985587105157 C16.065883319678736 303.8636824437121, 10.297797114617518 285.13108864886783, 6.455891130381559 265.53955222751813 C2.6139851461455996 245.94801580616843, -0.16326232836344917 223.86712847897732, 0.24753308972117338 203.71063734295345 C0.6583285078057959 183.55414620692957, 4.066377122642332 163.23685177210075, 8.920663638889295 144.60060541137483 C13.774950155136256 125.9643590506489, 20.848501053266602 108.55721609767068, 29.37325218720295 91.89315917859784 C37.8980033211393 75.229102259525, 48.375334957298215 57.570523834288444, 60.0691704425074 44.616263896937795 C71.76300592771658 31.662003959587146, 85.64172230635273 21.45241710890966, 99.53626509845805 14.167599554493961 C113.43080789056336 6.882782000078261, 129.5077836852858 2.611961276765139, 143.4364271951393 0.9073585704435914 C157.36507070499277 -0.7972441358779558, 176.44342313808693 3.133802052532308, 183.10812615757888 3.9399833165646783 C189.77282917707083 4.746164580597049, 183.87247410296496 2.6310476102306333, 183.42464531209103 5.744446154637814" stroke="#000000" stroke-width="1" fill="none"></path></g></svg>